<mxfile host="app.diagrams.net" modified="2024-06-05T08:57:51.765Z" agent="Mozilla/5.0 (Windows NT 10.0; Win64; x64) AppleWebKit/537.36 (KHTML, like Gecko) Chrome/123.0.0.0 Safari/537.36 OPR/109.0.0.0" version="24.4.13" etag="rNQMqJGHY0DH-F9dRYJt" type="github">
  <diagram name="Page-1" id="g-0T609FqU1J8dUulBDO">
    <mxGraphModel>
      <root>
        <mxCell id="0" />
        <mxCell id="1" parent="0" />
      </root>
    </mxGraphModel>
  </diagram>
</mxfile>
